<svg width="317" height="62" viewBox="0 0 317 62" fill="none" xmlns="http://www.w3.org/2000/svg">
<g clip-path="url(#clip0_1_78)">
<path d="M-0.0856934 -0.127197H23.9438C28.3685 -0.127197 32.105 0.560831 35.1567 1.93281C38.2067 3.30561 40.4912 5.2091 42.0092 7.63921C43.528 10.0701 44.3002 12.8589 44.3299 16.0056C44.3002 19.6088 43.2824 22.5199 41.2724 24.7364C39.2624 26.9545 36.6096 28.448 33.3131 29.22V29.8216C35.5968 29.9357 37.7732 30.6213 39.8409 31.88C41.9078 33.1395 43.5783 34.9052 44.8507 37.178C46.1223 39.4524 46.7585 42.0912 46.7585 45.0944C46.7585 48.3845 45.9559 51.3013 44.3521 53.8472C42.7476 56.3922 40.3395 58.3886 37.1296 59.8332C33.9197 61.2769 29.987 61.9992 25.3324 61.9992H-0.0856934V-0.127197ZM22.556 26.3032C24.5512 26.3032 26.3354 25.9388 27.9127 25.2084C29.4884 24.4796 30.7386 23.4427 31.6641 22.0984C32.5896 20.755 33.0519 19.1808 33.0519 17.3784C33.023 14.9189 32.1256 12.9315 30.3628 11.4152C28.5992 9.89976 26.0832 9.14162 22.8156 9.14162H11.1915V26.304L22.556 26.3032ZM23.596 52.6472C27.5575 52.6472 30.493 51.8948 32.4008 50.394C34.3095 48.8916 35.2778 46.8405 35.3075 44.236C35.2778 42.3773 34.8007 40.7037 33.876 39.2168C32.9497 37.7307 31.6204 36.5503 29.8856 35.6772C28.1517 34.8049 26.1409 34.3688 23.8564 34.3688H11.1915V52.6472H23.596Z" fill="black"/>
<path d="M55.9531 -0.127197H96.8118V9.22722H67.2303V26.2168H94.6427V35.5696H67.2303V52.5616H96.9849V62H55.9523L55.9531 -0.127197Z" fill="black"/>
<path d="M151.919 62V-0.127197H173.606C179.823 -0.127197 185.187 1.11191 189.698 3.58604C194.209 6.05935 197.671 9.62096 200.085 14.2684C202.499 18.9175 203.707 24.4437 203.707 30.8512C203.707 37.288 202.493 42.8428 200.064 47.5204C197.635 52.1956 194.136 55.7792 189.567 58.268C184.998 60.7568 179.562 62.0008 173.259 62.0008L151.919 62ZM172.652 52.3032C185.837 52.3611 192.43 45.2101 192.43 30.8504C192.43 23.7573 190.797 18.4308 187.529 14.8692C184.262 11.3084 179.418 9.5427 172.999 9.57042H163.197V52.3032H172.652Z" fill="black"/>
<path d="M213.683 -0.127197H254.541V9.22722H224.96V26.2168H252.373V35.5696H224.96V52.5616H254.714V62H213.683V-0.127197H213.683Z" fill="black"/>
<path d="M317 62H306.937L277.184 19.524H276.662V61.9992H265.385V-0.127197H275.621L305.203 42.3496H305.809V-0.127197H317V62Z" fill="black"/>
<path fill-rule="evenodd" clip-rule="evenodd" d="M144.846 21.1919C144.846 30.5113 138.721 38.7644 130.405 41.3583C138.073 46.287 142.495 53.4999 145.74 61.7709H135.502C130.184 51.9885 122.882 43.8015 101.548 43.8015L101.366 43.9042V21.0215C101.366 9.36501 111.323 0 123.106 0C134.889 0 144.846 9.53376 144.846 21.1919ZM133.641 22.6356C133.641 28.3404 128.562 32.9985 123.617 33.287V33.2398H112.079V22.6356C112.079 16.7442 116.905 11.9696 122.86 11.9696C128.815 11.9696 133.641 16.7442 133.641 22.6356Z" fill="black"/>
</g>
<defs>
<clipPath id="clip0_1_78">
<rect width="317" height="62" fill="white"/>
</clipPath>
</defs>
</svg>
