<svg width="210" height="100" viewBox="0 0 210 100" fill="none" xmlns="http://www.w3.org/2000/svg">
<mask id="mask0_53_505" style="mask-type:luminance" maskUnits="userSpaceOnUse" x="32" y="30" width="147" height="41">
<path d="M32 30.4326V71H179V30.4326" fill="white"/>
</mask>
<g mask="url(#mask0_53_505)">
<mask id="mask1_53_505" style="mask-type:luminance" maskUnits="userSpaceOnUse" x="32" y="30" width="147" height="41">
<path fill-rule="evenodd" clip-rule="evenodd" d="M32.0146 30.4627H178.972V70.9609H32.0146V30.4627Z" fill="white"/>
</mask>
<g mask="url(#mask1_53_505)">
<mask id="mask2_53_505" style="mask-type:luminance" maskUnits="userSpaceOnUse" x="-29" y="-25" width="772" height="999">
<path d="M-28.4307 -24.0476H742.245V973.297H-28.4307V-24.0476Z" fill="white"/>
</mask>
<g mask="url(#mask2_53_505)">
<path d="M102.202 62.4922C95.5038 62.4922 89.4933 58.6879 89.4933 53.3688C89.4933 48.0471 95.5038 44.239 102.25 44.239C105.183 44.239 107.921 44.9795 110.9 46.6404L108.8 49.3378C106.891 48.4147 104.644 47.8619 102.25 47.8619C99.4139 47.8619 96.1397 49.4499 96.1397 53.3688C96.1397 57.2851 99.366 58.8718 102.25 58.8718C104.644 58.8718 106.941 58.392 108.895 57.5407L110.998 60.3867C108.506 61.719 105.475 62.4922 102.202 62.4922ZM140.462 62.4229C147.206 62.4229 153.219 58.6174 153.219 53.2995C153.219 47.9778 147.206 44.1698 140.462 44.1698C133.716 44.1698 127.703 47.9778 127.703 53.2995C127.703 58.6174 133.716 62.4229 140.462 62.4229ZM146.572 53.2995C146.572 57.2158 143.298 58.8025 140.462 58.8025C137.625 58.8025 134.352 57.2158 134.352 53.2995C134.352 49.3794 137.625 47.7926 140.462 47.7926C143.298 47.7926 146.572 49.3794 146.572 53.2995ZM155.934 61.9821H162.234V51.1171C162.234 49.6501 163.374 47.9236 165.412 47.9123C166.837 47.9236 168.203 48.8983 168.203 50.135L168.19 61.9821H174.507V49.7987C174.507 46.5901 171.066 43.9116 166.963 43.9116C166.922 43.9116 166.883 43.9166 166.843 43.9179C166.803 43.9166 166.764 43.9116 166.725 43.9116C165.028 43.9116 163.419 44.4065 162.104 45.2351C162.093 45.1885 161.739 44.0237 155.934 44.0237V61.9821ZM80.293 61.9821H86.4646V44.6155H80.293V61.9821ZM113.941 61.9821H120.115V51.4509C120.115 49.7874 122.068 48.4563 124.171 48.4563C125.199 48.4563 126.166 48.6616 126.978 49.0217V44.4543C126.25 44.3435 125.464 44.2831 124.771 44.2831C123.116 44.2831 121.456 44.7628 120.097 45.5688C119.997 45.3635 119.24 44.3926 113.941 44.3926V61.9821ZM68.5188 55.0599L68.5176 61.9835H74.8379V49.3428C73.0069 51.2317 70.8951 53.1546 68.5188 55.0599Z" fill="#104076"/>
<path d="M74.8373 49.3389C81.7973 42.1586 84.6797 35.4844 82.4357 32.272C80.0935 28.9173 72.8161 30.2761 63.3829 35.2603C62.9611 35.4668 62.5871 35.6859 62.3113 35.8761C61.8554 36.1922 62.1211 36.4226 62.4574 36.3004C62.8024 36.1758 63.1953 36.0247 63.6385 35.8068C70.7094 32.4534 76.225 31.8514 78.3809 34.1924C81.6663 37.7574 74.938 49.4409 63.2872 58.0833C61.732 59.2368 59.3318 60.9255 57.7691 61.8637C57.6633 61.9291 57.5588 61.9934 57.4568 62.0589C57.0437 62.3296 56.676 62.5814 56.3864 62.8081C56.1043 63.0272 56.1585 63.3761 56.6672 63.157C56.977 63.0247 57.3535 62.8245 57.754 62.5789C57.8446 62.5235 57.934 62.4731 58.0285 62.4152C59.7852 61.3486 62.3931 59.5479 64.175 58.3037C65.6577 57.2687 67.1062 56.1855 68.5182 55.056C70.8945 53.1507 73.0063 51.2266 74.8373 49.3389Z" fill="#104076"/>
<path d="M43.8129 71H50.1332V64.4505C51.8609 63.4293 53.61 62.3098 55.3289 61.1374C55.7155 60.8717 56.0581 60.6072 56.3061 60.3806C56.7154 60.0066 56.4195 59.8139 56.1034 59.9801C55.7785 60.1514 55.3944 60.3831 54.9789 60.6476C45.2157 66.8923 38.6247 68.7975 36.1905 65.4932C34.0762 62.6246 37.5417 57.0787 43.8129 50.8151V65.3535C45.5922 64.749 47.6952 63.7856 50.1319 62.4307L50.1307 48.9426L51.5209 51.9006C53.0446 55.1672 55.81 57.1203 59.3259 57.1203C62.8405 57.1203 65.6059 55.1672 67.1296 51.9006L68.5198 48.9426L68.5186 52.3842C70.7802 50.1906 72.7107 48.0007 74.1752 45.8826C74.3578 45.6206 74.3414 45.4002 74.242 45.1585C73.2673 43.1247 71.1933 41.7232 68.783 41.7232C66.3992 41.7232 64.329 43.1059 63.3367 45.1056L60.6922 50.7157C60.4189 51.2622 59.9152 51.5657 59.3259 51.5657C58.7378 51.5657 58.2316 51.2622 57.9583 50.7157L55.3138 45.1056C54.8101 44.0893 54.0269 43.233 53.066 42.6361C55.0003 41.1011 56.8804 39.7297 58.7315 38.6065C59.1521 38.3508 59.4971 38.0953 59.788 37.8724C60.0739 37.6545 60.021 37.3057 59.511 37.5197C59.2012 37.6494 58.7995 37.8471 58.3978 38.0914C56.5064 39.2374 54.5734 40.4097 52.7248 41.6728C52.5006 41.8252 52.279 41.9789 52.0573 42.1325C51.3773 41.868 50.6394 41.7232 49.8675 41.7232C46.5178 41.7232 43.8129 44.4293 43.8129 47.779V48.6127C34.8846 56.5738 30.1976 64.4568 32.6469 67.9664C34.4451 70.5404 38.709 69.946 43.8129 67.7285V71ZM176.921 46.1281H177.15C177.41 46.1281 177.631 46.0337 177.631 45.7894C177.631 45.6156 177.505 45.4418 177.15 45.4418C177.047 45.4418 176.976 45.4493 176.921 45.4569V46.1281ZM176.921 47.2249H176.605V45.2441C176.771 45.2214 176.928 45.1975 177.166 45.1975C177.466 45.1975 177.662 45.2605 177.781 45.3474C177.899 45.4343 177.962 45.5678 177.962 45.7567C177.962 46.0173 177.788 46.1747 177.575 46.239V46.254C177.749 46.2855 177.868 46.4442 177.907 46.7351C177.954 47.0423 178.001 47.162 178.033 47.2249H177.701C177.655 47.162 177.607 46.9807 177.568 46.72C177.521 46.4669 177.394 46.3725 177.141 46.3725H176.921V47.2249ZM177.252 44.6925C176.471 44.6925 175.833 45.3625 175.833 46.1911C175.833 47.0348 176.471 47.6971 177.259 47.6971C178.049 47.706 178.68 47.0348 178.68 46.1987C178.68 45.3625 178.049 44.6925 177.259 44.6925H177.252ZM177.259 44.4155C178.23 44.4155 179.003 45.2051 179.003 46.1911C179.003 47.1935 178.23 47.9742 177.252 47.9742C176.282 47.9742 175.494 47.1935 175.494 46.1911C175.494 45.2051 176.282 44.4155 177.252 44.4155H177.259Z" fill="#104076"/>
</g>
</g>
</g>
</svg>
