<svg width="210" height="100" viewBox="0 0 210 100" fill="none" xmlns="http://www.w3.org/2000/svg">
<path d="M103 41.7413V19L75 33.6547V81L103 66.6972V56.5558" stroke="#32A1DA" stroke-width="6" stroke-miterlimit="10"/>
<path d="M79.6025 43.75V54.7422H81.5843V50.5003H85.195C86.2057 50.5003 87.0126 49.6888 87.0126 48.6838V45.5665C87.0126 44.5558 86.2 43.75 85.195 43.75L79.6025 43.75ZM81.5843 45.5609H84.5873C84.8315 45.5609 85.0309 45.7425 85.0309 45.9923V48.2469C85.0309 48.4968 84.8372 48.6783 84.5873 48.6783H81.5845L81.5843 45.5609Z" fill="#144765"/>
<path d="M91.711 43.75L87.9971 54.7367H89.9965L90.7573 52.3456H94.4701L95.2596 54.7367H97.258L93.5453 43.75H91.711ZM92.6193 46.3893L93.8913 50.58H91.3528L92.6193 46.3893Z" fill="#144765"/>
<path d="M108.559 43.75H116.508V45.5669H113.522V54.7368H111.54V45.5614H108.554V43.7502L108.559 43.75Z" fill="#144765"/>
<path d="M126.676 54.7367H124.763L120.607 47.628V54.7367H118.693V43.75H120.607L124.763 50.8928V43.75H126.676V54.7367Z" fill="#144765"/>
<path d="M129.598 43.75H136.264V45.5669H131.579V48.2866H135.849V50.1035H131.579V52.9254H136.264V54.7424H129.598V43.75Z" fill="#144765"/>
<path d="M54 43.8281V54.8093H59.5128C60.4838 54.8093 61.2617 54.0378 61.2617 53.0782V50.3069C61.2617 49.6653 60.7623 49.2055 60.3024 49.1203C60.8134 48.9557 61.1774 48.4111 61.1774 47.9171V45.5605C61.1774 44.6066 60.3995 43.8283 59.4285 43.8283L54 43.8281ZM55.9817 45.6169H58.752C58.9961 45.6169 59.1956 45.7984 59.1956 46.0483V47.8658C59.1956 48.0987 59.0303 48.2802 58.7975 48.2972V48.2917H55.9819L55.9817 45.6169ZM55.9817 50.0738H58.8373C59.0814 50.0738 59.2797 50.2554 59.2797 50.5052V52.5833C59.2797 52.8331 59.0871 53.0147 58.8373 53.0147H55.9817V50.0738Z" fill="#144765"/>
<path d="M99.2051 43.7422V54.7301H101.238V50.4882H102.521L105.394 54.7301H107.574L104.719 50.4427C105.747 50.4427 106.541 49.5346 106.541 48.6772V45.5599C106.541 44.5549 105.735 43.7423 104.724 43.7423L99.2051 43.7422ZM101.238 45.5653H104.111C104.361 45.5653 104.554 45.7469 104.554 45.9967V48.2513H104.559C104.559 48.5011 104.361 48.6827 104.117 48.6827H101.238L101.238 45.5653Z" fill="#144765"/>
<path d="M138.867 43.7422V54.7301H140.9V50.4882H142.184L145.056 54.7301H147.237L144.381 50.4427C145.409 50.4427 146.204 49.5346 146.204 48.6772V45.5599C146.204 44.5549 145.397 43.7423 144.387 43.7423L138.867 43.7422ZM140.907 45.5653H143.779C144.029 45.5653 144.222 45.7469 144.222 45.9967V48.2513C144.222 48.5011 144.023 48.6827 143.779 48.6827H140.907V45.5653Z" fill="#144765"/>
<path d="M69.7391 43.8281H65.1057C64.5209 43.8281 64.0439 44.3051 64.0439 44.8899V53.7591C64.0439 54.3439 64.5209 54.8209 65.1057 54.8209H69.7387C70.4087 54.8209 70.9538 54.2758 70.9538 53.6058V52.0671H69.029V52.527C69.029 52.7768 68.853 53.004 68.6088 53.004H66.0311V45.6396H68.6941C68.9269 45.6396 69.1143 45.7986 69.1143 46.0428V46.5765H70.9596V45.0378C70.9567 44.7159 70.8268 44.4083 70.5982 44.1817C70.3696 43.9552 70.0607 43.8282 69.7388 43.8284L69.7391 43.8281Z" fill="#144765"/>
<path d="M154.785 43.75H150.652C149.647 43.75 148.852 44.5563 148.852 45.5669V47.8268C148.852 48.8318 149.641 49.3144 150.618 49.6097C151.838 49.973 152.315 50.1037 153.57 50.45C153.831 50.5181 154.013 50.6658 154.013 50.9099V52.494C154.013 52.7439 153.814 52.9256 153.57 52.9256H151.361C151.089 52.9256 150.873 52.7268 150.873 52.4543V52.1988H148.823V53.5161C148.823 54.1861 149.368 54.7312 150.038 54.7312H154.2C155.205 54.7312 156 53.9249 156 52.9143V50.4557C156 49.4507 155.222 48.9397 154.285 48.6728C153.082 48.3265 152.258 48.1107 151.282 47.8325C151.032 47.7643 150.839 47.5997 150.839 47.3555V45.9872C150.839 45.7373 151.037 45.5557 151.282 45.5557H153.473C153.723 45.5557 153.916 45.7374 153.916 45.9872V46.2824H156V44.9595C156 44.2895 155.455 43.7501 154.785 43.7501L154.785 43.75Z" fill="#144765"/>
</svg>
