<svg width="210" height="100" viewBox="0 0 210 100" fill="none" xmlns="http://www.w3.org/2000/svg">
<path d="M121.098 52.6092C121.098 52.6092 120.803 51.5316 120.803 50.734V38.2492H125.806V62.2969L109.796 49.0418C108.939 48.3115 108.436 47.4991 108.436 47.4991C108.436 47.4991 108.686 48.3936 108.686 49.1702L108.682 61.7539H103.682V37.7988L119.542 50.7908C120.39 51.5127 121.098 52.6092 121.098 52.6092ZM166.377 38.249C174.297 38.249 176.328 41.3744 176.328 45.8657C176.328 49.1237 173.931 52.308 169.099 52.6869L168.57 52.7121C168.57 52.7121 169.036 52.7963 169.524 53.2677L178.298 61.7537H171.517L159.27 49.3173H165.371C170.833 49.3173 170.989 46.4403 171.029 45.71C171.132 43.8474 170.534 42.351 166.367 42.351H159.394V61.7537H154.196V38.249H166.377ZM128.054 50.3377C128.054 40.49 136.298 37.9055 143.224 37.9055C145.998 37.9055 148.457 38.1518 151.039 38.699L151.048 43.6912C149.56 43.2366 146.573 42.2348 143.224 42.2348C136.658 42.2348 133.47 44.7856 133.47 50.3377C133.47 54.8837 136.904 57.7818 143.224 57.7818C146.573 57.7818 149.93 56.9862 151.553 56.3843L151.544 61.2292C148.962 61.7764 145.998 62.1131 143.224 62.1131C135.827 62.1131 128.054 58.5163 128.054 50.3377Z" fill="#959FA9"/>
<path d="M71.7835 38.8513L76.6599 43.4457C76.5026 43.5153 76.3476 43.5897 76.1949 43.6688C75.915 43.814 75.576 44.0119 75.174 44.2897C74.3701 44.8453 73.3198 45.7251 71.9792 47.1731L62.4515 57.2585C60.8162 58.9843 59.1557 60.3523 57.6109 61.0742L52.7344 56.4819C52.867 56.4208 53.0228 56.3493 53.1975 56.2546C53.4795 56.1136 53.8183 55.9136 54.2202 55.6337C55.0221 55.0802 56.0745 54.2026 57.413 52.7546L66.9407 42.6838C68.576 40.958 70.2387 39.5753 71.7835 38.8513Z" fill="#54B948"/>
<path d="M52.9054 63.236C55.0626 63.236 57.0432 62.8066 58.3881 62.11C59.0005 61.7901 59.8782 61.2366 60.6337 60.6515C61.3851 60.0643 62.4479 59.1509 63.3507 58.1933L72.8932 48.1373C75.2967 45.6012 76.7448 44.8204 77.6203 44.5131L82.5157 49.1454C81.4928 50.2398 69.3154 63.2107 69.3154 63.2107C68.482 64.1073 67.6085 64.9702 67.015 65.5174C66.4446 66.0457 65.4659 66.8286 64.9608 67.199C62.0964 69.2973 58.2702 71 53.1159 71C41.4436 71 32 61.4954 32 50.5555C32 36.9806 42.6053 29.105 52.2677 29.105C55.2268 29.0166 57.603 29.5133 59.4783 30.1531C61.2167 30.7424 62.5278 31.4559 63.477 31.942C62.3552 32.6639 61.2672 33.6426 59.472 35.5599L57.5167 37.6625C57.0663 37.4899 55.0669 36.7954 52.4992 36.8711C46.3031 37.0542 39.5242 42.0801 39.7683 50.3198C39.9956 58.027 46.3494 63.236 52.9054 63.236Z" fill="#54B948"/>
<path d="M70.9461 37.8893C70.3294 38.2092 69.4518 38.7606 68.6963 39.3478C67.9449 39.9329 66.882 40.8463 65.9791 41.8039L56.4409 51.862C54.0332 54.396 52.5873 55.1768 51.7118 55.4862L46.8164 50.8539C47.8393 49.7594 60.0167 36.7885 60.0167 36.7885C60.8501 35.8941 61.7236 35.0312 62.3171 34.4797C62.8874 33.9536 63.8661 33.1706 64.3733 32.8002C67.2335 30.7019 71.066 28.9992 76.2182 28.9992C87.8927 28.9992 97.3319 38.4996 97.3319 49.4417C97.3319 63.0187 86.7266 70.8922 77.0642 70.8922C74.1051 70.9806 71.7291 70.4818 69.8517 69.844C68.1112 69.2526 66.7979 68.5371 65.8466 68.0509C67.0336 67.2511 68.0522 66.3693 69.8601 64.4393L71.8153 62.3368C72.2657 62.5073 74.2651 63.2039 76.8307 63.1302C83.0289 62.945 89.8079 57.917 89.5637 49.6774C89.3343 41.9723 82.9784 36.7633 76.4245 36.7633C74.2651 36.7633 72.2909 37.1905 70.9461 37.8893Z" fill="#54B948"/>
</svg>
