<svg width="210" height="100" viewBox="0 0 210 100" fill="none" xmlns="http://www.w3.org/2000/svg">
<path fill-rule="evenodd" clip-rule="evenodd" d="M108.568 42.4206C107.57 41.5779 105.866 41.157 103.456 41.157H98.0195V58.0184H102.084V52.7338H103.905C106.115 52.7338 107.736 52.2456 108.767 51.2683C109.929 50.1735 110.514 48.7156 110.514 46.8956C110.514 45.0083 109.865 43.5163 108.568 42.4206ZM103.804 48.9185H102.084V44.9723H103.63C105.509 44.9723 106.449 45.634 106.449 46.9572C106.449 48.2635 105.567 48.9185 103.804 48.9185ZM117.47 41.156H113.231V58.0174H122.383V54.2011H117.47V41.156ZM130.687 41.156L124.029 58.0174H128.592L129.465 55.5661H135.251L136.049 58.0174H140.663L134.052 41.156H130.687ZM130.637 52.1527L132.383 46.3894L134.102 52.1527H130.637ZM142.781 58.0174H147.02V41.156H142.781V58.0174ZM163.48 44.3164C162.945 43.537 162.257 42.875 161.459 42.3703C160.18 41.5608 158.433 41.157 156.222 41.157H150.637V58.0174H157.17C159.532 58.0174 161.426 57.243 162.856 55.6922C164.286 54.1424 165 52.0854 165 49.5232C165 47.4852 164.494 45.7496 163.48 44.3164ZM156.696 54.2002H154.876V44.9733H156.722C158.019 44.9733 159.015 45.3809 159.714 46.1932C160.413 47.0056 160.762 48.1582 160.762 49.6502C160.762 52.6835 159.407 54.2002 156.696 54.2002ZM63.6017 27L49.8628 30.6115L46.0765 44.4785L50.812 49.3583L46 54.1575L49.5634 68.0851L63.2429 71.9213L68.0558 67.1211L72.7913 72L86.5302 68.3885L90.3156 54.5206L85.581 49.6427L90.393 44.8434L86.8296 30.9149L73.1483 27.0787L68.3372 31.8779L63.6017 27ZM55.1706 33.2789L62.408 31.3755L65.5728 34.6363L60.9573 39.2394L55.1706 33.2789ZM71.0582 34.6799L74.2741 31.4732L81.4802 33.4941L75.5991 39.3588L71.0582 34.6799ZM50.4125 43.34L52.4062 36.0364L58.191 41.9968L53.5764 46.5999L50.4125 43.3391V43.34ZM78.3182 42.1618L84.1993 36.2952L86.075 43.632L82.8601 46.8397L78.3182 42.1618ZM63.6773 42.0414L68.2928 37.4384L72.8328 42.1172L68.2182 46.7203L63.6773 42.0414ZM56.2974 49.4019L60.912 44.7989L65.4548 49.4777L60.8383 54.0808L56.2974 49.4019ZM70.9392 49.5223L75.5538 44.9192L80.0947 49.5981L75.4792 54.2011L70.9392 49.5223ZM50.3161 55.368L53.5329 52.1594L58.0729 56.8392L52.1937 62.7029L50.3161 55.368ZM63.5583 56.8828L68.1738 52.2797L72.7148 56.9586L68.1002 61.5616L63.5583 56.8828ZM78.1992 57.0041L82.8147 52.4011L85.9796 55.6609L83.9868 62.9646L78.1992 57.0041ZM54.9128 65.5068L60.793 59.6402L65.3358 64.3191L62.119 67.5278L54.9128 65.5068ZM70.8202 64.3637L75.4348 59.7606L81.2205 65.722L73.9841 67.6245L70.8202 64.3637Z" fill="#111111"/>
</svg>
