<svg width="210" height="100" viewBox="0 0 210 100" fill="none" xmlns="http://www.w3.org/2000/svg">
<path fill-rule="evenodd" clip-rule="evenodd" d="M68.2908 36.2845L58.1287 43.4775L48.1469 36.3989L38.1516 43.4883L28 36.2889L48.1473 22L68.2908 36.2845Z" fill="#FF555F"/>
<path fill-rule="evenodd" clip-rule="evenodd" d="M38.3763 57.3153V43.3963L28 36.3281V64.3821L48.5929 78.4097V64.2738L38.3763 57.3153ZM48.5929 64.9794H58.4417V50.6539H48.5929V64.9794Z" fill="#25A5BD"/>
<path fill-rule="evenodd" clip-rule="evenodd" d="M48.5928 78.4085L69.1857 64.5308V50.6523L48.5928 64.4232V78.4085Z" fill="#1E2C4C"/>
<path fill-rule="evenodd" clip-rule="evenodd" d="M58.8429 57.8137L48.5928 50.6305L58.7945 43.4883L69.1857 50.6403L58.8429 57.8137Z" fill="#FF555F"/>
<path fill-rule="evenodd" clip-rule="evenodd" d="M89.8684 54.7712C92.0064 54.7712 93.781 52.9428 93.781 50.6518C93.781 48.3595 92.0064 46.5322 89.8684 46.5322C87.7626 46.5322 85.987 48.3595 85.987 50.6508C85.987 52.9428 87.7616 54.7712 89.8684 54.7712ZM86.4394 58.0492C87.0706 59.2668 88.3345 60.1084 89.7791 60.1084C91.8856 60.1084 93.5709 58.3393 93.5709 56.1633V56.0182L93.511 55.9911C92.3381 57.122 90.8319 57.8185 89.147 57.8185C85.5363 57.8185 82.6162 54.5989 82.6162 50.6532C82.6162 46.6787 85.5359 43.4876 89.147 43.4876C90.8322 43.4876 92.3371 44.1844 93.511 45.3447L93.5709 45.3143V43.8639H96.9417V56.164C96.9417 60.0516 93.9621 63.1844 89.9293 63.1844C87.2208 63.1844 84.8733 61.7923 83.6101 59.6746L86.4394 58.0492ZM108.559 48.7642L108.589 48.706C107.845 47.3721 106.535 46.4733 105.016 46.4733C103.438 46.4733 102.216 47.3149 101.412 48.706L101.442 48.7642H108.559ZM108.171 53.4328L110.495 55.6656C109.154 56.9999 107.278 57.8117 105.223 57.8117C101.114 57.8117 97.8371 54.6216 97.8371 50.6491C97.8371 46.6763 101.025 43.4862 105.015 43.4862C105.956 43.4847 106.887 43.6691 107.756 44.0287C108.625 44.3883 109.414 44.9161 110.078 45.5818C110.742 46.2474 111.268 47.0378 111.626 47.9074C111.984 48.777 112.166 49.7088 112.163 50.6491C112.163 51.2874 112.103 51.4613 112.103 51.4613H101.173C101.173 52.9689 102.99 54.738 105.074 54.738C106.295 54.738 107.366 54.2162 108.171 53.4328ZM117.216 50.8424V57.8117H113.953V43.873H117.216V45.5708L117.275 45.6012C118.382 44.2016 119.868 43.4862 121.412 43.4862C127.238 43.4862 127.384 48.9067 127.384 50.5747V57.8117H124.121V50.8424C124.121 49.1744 124.091 46.6127 120.713 46.6127C118.79 46.6127 117.216 48.4891 117.216 50.8424ZM136.262 46.5914C134.1 46.5914 132.358 48.4553 132.358 50.7618C132.358 53.0988 134.1 54.961 136.262 54.961C138.364 54.961 140.136 53.0988 140.136 50.7618C140.136 48.4553 138.364 46.5914 136.262 46.5914ZM136.983 58.0966C135.271 58.0966 133.8 57.4161 132.598 56.2036L132.537 56.2341V63.1848H129.175V43.8724H132.537V45.3207L132.598 45.3512C133.799 44.1982 135.271 43.4879 136.983 43.4879C140.587 43.4879 143.5 46.7416 143.5 50.794C143.5 54.8456 140.587 58.0966 136.983 58.0966ZM151.648 54.7373C153.786 54.7373 155.531 52.9394 155.531 50.6491C155.531 48.3578 153.785 46.5305 151.649 46.5305C149.542 46.5305 147.766 48.3578 147.766 50.6488C147.766 52.9394 149.541 54.7373 151.648 54.7373ZM150.927 43.4862C152.612 43.4862 154.117 44.183 155.291 45.3424L155.351 45.3119V43.8615H158.721V57.4347H155.35V56.0425L155.29 55.9843C154.117 57.1153 152.611 57.8117 150.926 57.8117C147.315 57.8117 144.395 54.6216 144.395 50.6491C144.395 46.6763 147.315 43.4862 150.927 43.4862ZM173.046 55.6656C172.361 56.3498 171.547 56.8918 170.651 57.2601C169.755 57.6284 168.795 57.8159 167.826 57.8117C163.756 57.8117 160.512 54.6216 160.512 50.6491C160.512 46.6763 163.756 43.4862 167.826 43.4862C169.861 43.4862 171.719 44.2984 173.046 45.6324L170.717 47.7778C170.348 47.3811 169.9 47.0654 169.403 46.8508C168.905 46.6362 168.369 46.5275 167.827 46.5315C165.585 46.5315 163.815 48.3866 163.815 50.6491C163.815 52.9107 165.585 54.737 167.826 54.737C168.379 54.736 168.925 54.6223 169.433 54.403C169.94 54.1836 170.397 53.8632 170.776 53.4612L173.046 55.6656ZM179.66 46.4577V56.9166H176.282V46.4581H173.942V43.3197H176.282V37.2188H179.659V43.3197H182V46.4581L179.66 46.4577Z" fill="#25A5BD"/>
</svg>
