<svg width="210" height="100" viewBox="0 0 210 100" fill="none" xmlns="http://www.w3.org/2000/svg">
<path fill-rule="evenodd" clip-rule="evenodd" d="M45.5852 76.141C45.5852 76.9157 46.1912 77.456 46.9555 77.456C47.8097 77.456 48.3718 76.8042 48.3718 75.8488C48.3718 74.8701 47.8097 74.2313 46.967 74.2313C46.2925 74.2313 45.8201 74.5779 45.5852 75.1303V76.141ZM45.5852 77.8596C45.5852 78.4331 45.2924 78.6127 44.8886 78.6127H44.7186C44.2815 78.6127 44 78.4446 44 77.8596V70.9374C44 70.8819 44.2815 70.7578 44.5962 70.7578C45.0686 70.7578 45.585 71.0067 45.585 72.0273V73.8593C45.9782 73.3095 46.5851 72.9603 47.3609 72.9603C48.8325 72.9603 49.8994 74.073 49.8994 75.8261C49.8994 77.5335 48.8651 78.7146 47.3379 78.7146C46.4945 78.7146 45.8884 78.2978 45.585 77.7701M50.3148 78.7701C50.5727 78.8827 50.8214 78.961 51.0678 79.0051C51.4829 79.0834 51.9438 79.0834 52.2473 78.7701C52.4162 78.5776 52.4945 78.4316 52.5288 78.3435C52.5517 78.2863 52.563 78.2422 52.5517 78.208C52.2928 78.1754 52.1347 78.0848 52.0336 77.858L50.1469 73.4768C50.1126 73.387 50.5286 73.0159 51.0106 73.0159C51.3819 73.0159 51.6851 73.1733 51.8989 73.8032L53.0907 76.9387L54.1455 73.8146C54.3372 73.1854 54.6749 73.0159 55.0232 73.0159C55.4728 73.0159 55.8992 73.3765 55.8773 73.4555L53.8763 78.6902C53.6406 79.2765 53.2148 80.0507 52.1577 80.3201C51.2921 80.546 49.1794 80.0507 50.3148 78.7701Z" fill="#00A64F"/>
<path d="M65.1224 76.3572C65.1224 76.8319 65.0009 77.2414 64.7584 77.5897C64.5162 77.9349 64.176 78.1999 63.7429 78.3852C63.3073 78.5696 62.8096 78.6608 62.2493 78.6608C62.0911 78.6608 61.8985 78.651 61.6701 78.6308C61.4418 78.6095 61.1398 78.5547 60.7614 78.4643C60.3837 78.3728 59.9913 78.2384 59.5836 78.0604V76.1973C59.9437 76.4233 60.3202 76.6218 60.7101 76.7912C61.0797 76.9478 61.4752 77.0261 61.8985 77.0261C62.2876 77.0261 62.5388 76.9616 62.6547 76.8319C62.7689 76.7006 62.8259 76.5799 62.8259 76.4673C62.8259 76.2618 62.7273 76.0889 62.5315 75.9477C62.335 75.8066 62.0495 75.6614 61.6751 75.5113C61.2597 75.3359 60.8961 75.145 60.5818 74.9378C60.2743 74.7355 60.0128 74.4706 59.8144 74.1604C59.616 73.8496 59.5183 73.4817 59.5183 73.0567C59.5183 72.6455 59.6177 72.2753 59.8192 71.9457C60.0182 71.6129 60.325 71.3493 60.7376 71.1528C61.1497 70.953 61.6529 70.8542 62.2475 70.8542C62.6701 70.8542 63.0625 70.896 63.4223 70.9766C63.7794 71.0599 64.0766 71.1528 64.3124 71.2564C64.5448 71.3575 64.7054 71.4391 64.7927 71.4978V73.2818C64.4665 73.0499 64.1188 72.8499 63.7544 72.6846C63.3706 72.5082 62.9529 72.4181 62.5306 72.4204C62.2452 72.4204 62.0388 72.476 61.91 72.586C61.7826 72.6954 61.7191 72.8316 61.7191 72.9907C61.7191 73.1423 61.7818 73.272 61.9083 73.3823C62.0372 73.4915 62.264 73.6245 62.5918 73.7828C63.1767 74.056 63.6458 74.3049 63.9966 74.5241C64.3474 74.7436 64.6231 74.9965 64.8221 75.2845C65.022 75.5708 65.1224 75.9298 65.1224 76.3572ZM71.144 78.306C70.9786 78.3687 70.8046 78.4251 70.6219 78.4781C70.4392 78.5328 70.2337 78.5752 70.0061 78.6095C69.7576 78.6464 69.5067 78.6642 69.2555 78.6625C68.6455 78.6625 68.1291 78.5597 67.705 78.3526C67.284 78.1444 66.9578 77.8869 66.7293 77.5726C66.5017 77.2602 66.3434 76.942 66.2545 76.6149C66.1672 76.2904 66.1231 76.0031 66.1231 75.7552C66.1231 75.5073 66.1672 75.2202 66.2578 74.8938C66.3476 74.5682 66.5034 74.2535 66.7268 73.9507C66.9496 73.6473 67.2733 73.3921 67.6952 73.1881C68.1176 72.9842 68.638 72.8813 69.2555 72.8813C69.6692 72.8813 70.0061 72.9116 70.2654 72.9694C70.525 73.0281 70.7892 73.1049 71.056 73.2054V74.7551C70.4124 74.5505 69.909 74.4475 69.5468 74.4475C69.196 74.4475 68.8836 74.5544 68.6113 74.7666C68.3404 74.9777 68.2032 75.3089 68.2032 75.7552C68.2032 76.0521 68.2719 76.3017 68.4058 76.5057C68.5411 76.7081 68.7124 76.8565 68.922 76.9534C69.13 77.0474 69.338 77.0963 69.5468 77.0963C69.7452 77.0963 69.9687 77.066 70.223 77.0073C70.4736 76.9495 70.7802 76.8647 71.144 76.7553M78.0664 78.5671H76.0949V75.6687C76.0949 75.6468 76.0949 75.6255 76.098 75.605C76.0997 75.5856 76.1013 75.543 76.1013 75.477C76.1013 75.2104 76.0425 74.9654 75.9301 74.7413C75.8165 74.5168 75.6004 74.4059 75.284 74.4059C75.0342 74.4059 74.8141 74.4899 74.6247 74.6572C74.4347 74.8221 74.2536 75.0324 74.0824 75.2845V78.5671H72.1098V70.9628H74.0824V73.7811C74.4077 73.4336 74.7283 73.1964 75.0465 73.0699C75.3698 72.9432 75.7143 72.8792 76.0615 72.8813C77.3992 72.8813 78.0662 73.6327 78.0662 75.136M85.2163 78.5671H83.2456V75.5537C83.2456 75.2463 83.1942 74.9794 83.0946 74.7495C82.9935 74.5218 82.7732 74.4059 82.4322 74.4059C82.2714 74.4059 82.1304 74.4371 82.0089 74.4974C81.8866 74.5562 81.7752 74.6352 81.6794 74.7313C81.5822 74.8253 81.5006 74.9165 81.4354 75.0049C81.3701 75.0919 81.3018 75.1859 81.2314 75.2847V78.5671H79.259V72.9753H81.2314V73.7811C81.5422 73.4474 81.8537 73.215 82.1655 73.0803C82.4779 72.9467 82.8262 72.8813 83.2096 72.8813C84.5474 72.8813 85.2165 73.6815 85.2165 75.2845M90.2845 75.2715C90.2845 74.9151 90.1947 74.6294 90.0168 74.4174C89.8383 74.2036 89.5814 74.0969 89.2477 74.0969C88.9148 74.0969 88.6473 74.2044 88.4433 74.4214C88.2395 74.6386 88.1384 74.9224 88.1384 75.2713L90.2845 75.2715ZM92.1348 76.2447H88.1921C88.2687 76.5857 88.4573 76.8647 88.7582 77.0808C89.0593 77.297 89.4002 77.4054 89.7813 77.4054C90.4485 77.4054 91.1858 77.2187 91.9917 76.8434V78.0686C91.7039 78.2187 91.3514 78.3557 90.9413 78.4781C90.5285 78.6013 90.0055 78.6625 89.3659 78.6625C88.6799 78.6625 88.0927 78.5328 87.6088 78.2783C87.1268 78.0222 86.7645 77.6754 86.5248 77.2358C86.2849 76.7977 86.165 76.3002 86.165 75.7437C86.165 75.1966 86.2849 74.7037 86.5248 74.2721C86.7645 73.8381 87.1268 73.4973 87.6088 73.2509C88.0927 73.0037 88.6782 72.8813 89.3659 72.8813C89.8212 72.8813 90.2593 72.9801 90.6826 73.1734C91.105 73.3708 91.4525 73.6882 91.725 74.1334C91.9976 74.5757 92.1346 75.1475 92.1346 75.849M95.0158 71.6872C95.0158 71.9188 94.9333 72.1138 94.7702 72.2736C94.6071 72.4344 94.4112 72.5158 94.1861 72.5158C94.0398 72.5178 93.8958 72.48 93.7693 72.4066C93.6442 72.3354 93.5408 72.2317 93.47 72.1063C93.3974 71.9787 93.3599 71.8341 93.3614 71.6872C93.3614 71.4604 93.4414 71.2654 93.602 71.1014C93.7619 70.9365 93.9562 70.8542 94.1861 70.8542C94.4112 70.8542 94.6071 70.9367 94.7702 71.1014C94.9333 71.2654 95.0158 71.4604 95.0158 71.6872ZM95.174 78.5671H93.2031V72.9753H95.174V78.5671ZM100.479 76.7937V74.6555C100.248 74.5283 100.065 74.4362 99.9355 74.3815C99.8073 74.3276 99.6532 74.299 99.4761 74.299C99.1637 74.299 98.9043 74.4312 98.6955 74.6956C98.4892 74.9591 98.3848 75.3171 98.3848 75.7706C98.3848 76.2658 98.4948 76.6273 98.7126 76.8524C98.9313 77.0775 99.1867 77.19 99.4761 77.19C99.7144 77.19 99.9069 77.1533 100.054 77.0758C100.206 76.9986 100.348 76.9039 100.479 76.7937ZM102.45 78.5679H100.479V78.0629C100.276 78.2326 100.053 78.3769 99.8155 78.4927C99.583 78.6055 99.2625 78.6625 98.8513 78.6625C98.4435 78.6625 98.0446 78.5614 97.6514 78.3616C97.2598 78.1584 96.9368 77.8458 96.6847 77.4202C96.432 76.9935 96.3055 76.4566 96.3055 75.8099C96.3055 75.3016 96.4009 74.8269 96.5916 74.3815C96.7835 73.9369 97.0813 73.5754 97.4883 73.2975C97.8961 73.0208 98.3938 72.8813 98.9843 72.8813C99.3489 72.8813 99.6459 72.9222 99.8743 73.0014C100.101 73.082 100.302 73.1847 100.479 73.3104V70.9645H102.45M107.585 75.2715C107.585 74.9151 107.495 74.6294 107.317 74.4174C107.138 74.2036 106.881 74.0969 106.548 74.0969C106.216 74.0969 105.947 74.2044 105.743 74.4214C105.54 74.6386 105.439 74.9224 105.439 75.2713L107.585 75.2715ZM109.436 76.2447H105.493C105.57 76.5857 105.759 76.8647 106.059 77.0808C106.36 77.297 106.7 77.4054 107.081 77.4054C107.749 77.4054 108.487 77.2187 109.293 76.8434V78.0686C109.004 78.2187 108.652 78.3557 108.241 78.4781C107.829 78.6013 107.306 78.6625 106.667 78.6625C105.981 78.6625 105.393 78.5328 104.909 78.2783C104.427 78.0222 104.065 77.6754 103.825 77.2358C103.585 76.7977 103.466 76.3002 103.466 75.7437C103.466 75.1966 103.585 74.7037 103.825 74.2721C104.065 73.8381 104.427 73.4973 104.909 73.2509C105.393 73.0037 105.979 72.8813 106.667 72.8813C107.121 72.8813 107.559 72.9801 107.983 73.1734C108.405 73.3708 108.754 73.6882 109.026 74.1334C109.298 74.5757 109.435 75.1475 109.435 75.849M115.313 73.2795L114.584 75.2536C114.284 74.9681 113.981 74.8253 113.673 74.8253C113.395 74.8253 113.155 74.9199 112.951 75.1093C112.749 75.2985 112.555 75.6468 112.368 76.1566V78.5671H110.395V72.9753H112.368V74.322C112.491 73.9908 112.71 73.6684 113.026 73.3537C113.339 73.0396 113.71 72.8813 114.133 72.8813C114.358 72.8813 114.552 72.9141 114.718 72.9784C114.884 73.0452 115.084 73.1448 115.313 73.2795ZM120.661 72.0836H124.335V72.9084H121.593V74.8923H124.253V75.7308H121.592V77.7439H124.429V78.5671H120.661M127.126 78.5671H127.976V72.0836H127.126V78.5671ZM131.652 76.0008H133.799C133.777 75.6598 133.678 75.3954 133.498 75.2104C133.318 75.0266 133.077 74.9337 132.774 74.9337C132.473 74.9337 132.224 75.0268 132.03 75.2104C131.837 75.3954 131.711 75.6598 131.652 76.0008ZM134.638 76.4999H131.638C131.659 76.9134 131.796 77.2414 132.049 77.4855C132.298 77.7292 132.624 77.851 133.022 77.851C133.576 77.851 134.087 77.6795 134.556 77.3369V78.1559C134.297 78.3271 134.04 78.4495 133.784 78.5238C133.529 78.5965 133.23 78.6356 132.887 78.6356C132.418 78.6356 132.037 78.5368 131.748 78.3411C131.457 78.1461 131.225 77.8834 131.05 77.5524C130.875 77.2218 130.788 76.8392 130.788 76.4053C130.788 75.7537 130.972 75.225 131.341 74.8171C131.708 74.4093 132.187 74.2044 132.774 74.2044C133.341 74.2044 133.794 74.4028 134.129 74.8C134.468 75.1964 134.638 75.7266 134.638 76.3932M140.566 77.5808V78.4129C140.139 78.5696 139.723 78.6479 139.315 78.6479C138.643 78.6479 138.108 78.4495 137.707 78.0515C137.308 77.6551 137.108 77.1215 137.108 76.4543C137.108 75.7813 137.303 75.2373 137.694 74.8253C138.083 74.4118 138.597 74.2044 139.234 74.2044C139.456 74.2044 139.654 74.2266 139.831 74.2673C140.008 74.3091 140.225 74.3872 140.484 74.5014V75.406C140.051 75.1279 139.649 74.9875 139.281 74.9875C138.895 74.9875 138.578 75.1231 138.33 75.3931C138.082 75.6623 137.959 76.0081 137.959 76.4257C137.959 76.8678 138.092 77.2153 138.359 77.4755C138.626 77.7351 138.986 77.8648 139.437 77.8648C139.765 77.8648 140.141 77.7708 140.566 77.5808ZM142.728 74.9721L144.321 73.4075V74.3007H145.659V75.056H144.321V77.1558C144.321 77.6478 144.522 77.8917 144.923 77.8917C145.224 77.8917 145.541 77.7936 145.874 77.5956V78.3754C145.551 78.5581 145.197 78.6479 144.816 78.6479C144.431 78.6479 144.112 78.5351 143.855 78.3085C143.777 78.2425 143.71 78.1653 143.655 78.0792C143.603 77.9936 143.559 77.8802 143.523 77.7441C143.488 77.6052 143.471 77.3427 143.471 76.9551V75.056H142.728M149.201 74.299V75.2707L149.247 75.1947C149.659 74.534 150.07 74.2044 150.478 74.2044C150.802 74.2044 151.135 74.3661 151.483 74.6883L151.035 75.4346C150.74 75.1548 150.466 75.0153 150.213 75.0153C149.94 75.0153 149.701 75.145 149.502 75.406C149.3 75.6654 149.201 75.9738 149.201 76.332V78.5671H148.351V74.2988M153.895 74.299H154.745V78.5671H153.895V74.299ZM154.32 72.5029C154.46 72.5029 154.578 72.5518 154.678 72.6472C154.777 72.7426 154.826 72.8602 154.826 72.9997C154.826 73.1367 154.777 73.2534 154.678 73.3537C154.632 73.4017 154.576 73.4397 154.514 73.4652C154.453 73.4907 154.386 73.5033 154.32 73.5021C154.19 73.5021 154.075 73.4516 153.976 73.3503C153.876 73.2509 153.826 73.1319 153.826 72.9995C153.826 72.87 153.876 72.7541 153.976 72.6545C154.075 72.5534 154.19 72.5029 154.32 72.5029ZM160.974 77.5808V78.4129C160.548 78.5696 160.131 78.6479 159.723 78.6479C159.051 78.6479 158.516 78.4495 158.115 78.0515C157.716 77.6551 157.517 77.1215 157.517 76.4543C157.517 75.7813 157.712 75.2373 158.103 74.8253C158.492 74.4118 159.005 74.2044 159.643 74.2044C159.864 74.2044 160.062 74.2266 160.24 74.2673C160.417 74.3091 160.634 74.3872 160.893 74.5014V75.406C160.459 75.1279 160.058 74.9875 159.689 74.9875C159.304 74.9875 158.987 75.1231 158.739 75.3931C158.491 75.6623 158.367 76.0081 158.367 76.4257C158.367 76.8678 158.5 77.2153 158.767 77.4755C159.034 77.7351 159.394 77.8648 159.845 77.8648C160.173 77.8648 160.548 77.7708 160.974 77.5808ZM44.458 62.7867H160.97V62.1406H44.458V62.7867Z" fill="#353333"/>
<path fill-rule="evenodd" clip-rule="evenodd" d="M65.0499 53.9352L60.9053 46.542H75.8845L68.3619 30.6067L57.3324 53.9349H44.1387L61.4136 22.4455H75.3105L92.458 53.9354M92.5223 35.6414H108.967C113.113 35.6414 114.768 35.3854 114.768 32.4536C114.768 29.6465 113.43 29.3285 109.157 29.3285H92.458L88.7578 22.4453H111.962C122.93 22.4453 127.006 27.2287 127.006 32.3254C127.006 37.2354 123.248 42.652 111.2 42.652H105.714V53.9349H92.458V35.6416" fill="#EB1923"/>
<path fill-rule="evenodd" clip-rule="evenodd" d="M161.369 51.577C157.416 53.4253 152.509 54.3204 147.281 54.3204C131.471 54.3204 126.054 45.521 126.054 38.2552C126.054 29.0772 134.085 22 147.92 22C152.955 22 157.353 22.7626 161.048 24.1666V33.2824C157.225 31.244 153.91 30.3498 150.021 30.3498C143.391 30.3498 137.972 33.3436 137.972 38.1255C137.972 42.8438 143.519 45.9044 150.148 45.9044C153.975 45.9044 157.097 45.1415 161.369 43.1635" fill="#EB1923"/>
<path d="M164.987 26.7453C165.281 26.7453 165.543 26.724 165.543 26.3701C165.543 26.086 165.285 26.0332 165.043 26.0332H164.569V26.7453H164.987ZM164.57 28.0342H164.223V25.7394H165.098C165.639 25.7394 165.906 25.9392 165.906 26.393C165.906 26.8023 165.649 26.9811 165.31 27.0235L165.963 28.0342H165.576L164.971 27.0381H164.569L164.57 28.0342ZM164.993 28.5437C165.889 28.5437 166.602 27.8375 166.602 26.8806C166.602 25.9392 165.889 25.2296 164.993 25.2296C164.078 25.2296 163.371 25.9392 163.371 26.8806C163.371 27.8375 164.078 28.544 164.993 28.544V28.5437ZM162.97 26.8806C162.97 25.7394 163.898 24.8984 164.993 24.8984C166.074 24.8984 167 25.7394 167 26.8806C167 28.0342 166.074 28.8749 164.993 28.8749C163.898 28.8749 162.97 28.0342 162.97 26.8806Z" fill="#211E1E"/>
</svg>
