<svg width="210" height="100" viewBox="0 0 210 100" fill="none" xmlns="http://www.w3.org/2000/svg">
<path d="M48.7636 49.0404C48.7636 46.4296 48.2608 44.4925 47.2552 43.2306C46.2487 41.9696 44.7239 41.3399 42.6738 41.3399H40.4931V57.3064H42.1616C44.4388 57.3064 46.1073 56.629 47.1697 55.2692C48.231 53.912 48.7636 51.8352 48.7636 49.0404ZM56.5405 48.7685C56.5405 53.5253 55.2665 57.1908 52.7185 59.7635C50.1706 62.3375 46.5886 63.6244 41.9715 63.6244H33V35.121H42.5977C47.0497 35.121 50.4867 36.2912 52.9085 38.6302C55.3296 40.9704 56.5405 44.3482 56.5405 48.7685ZM81.3915 63.6241H88.5305V35.0014H81.3915V63.6241ZM98.5593 52.9477C98.5593 54.7726 98.797 56.1646 99.2713 57.1211C99.7466 58.0791 100.543 58.5573 101.662 58.5573C102.77 58.5573 103.553 58.0791 104.009 57.1211C104.466 56.1646 104.693 54.7726 104.693 52.9477C104.693 51.1322 104.462 49.7629 104 48.8385C103.536 47.9118 102.746 47.4478 101.626 47.4478C100.53 47.4478 99.7468 47.9095 99.2713 48.8278C98.797 49.7475 98.5593 51.1203 98.5593 52.9477ZM111.959 52.9477C111.959 56.4246 111.051 59.1369 109.23 61.0812C107.411 63.0266 104.864 64 101.59 64C98.45 64 95.9506 63.0052 94.0956 61.0156C92.2381 59.0261 91.3099 56.3375 91.3099 52.9477C91.3099 49.4815 92.2191 46.7881 94.0398 44.8677C95.8604 42.9474 98.4132 41.9872 101.7 41.9872C103.731 41.9872 105.528 42.4321 107.085 43.3209C108.643 44.2093 109.846 45.4822 110.691 47.14C111.537 48.7957 111.959 50.7326 111.959 52.9477ZM114.794 63.6243H121.934V42.3631H114.794V63.6243ZM114.794 39.7915H121.934V35H114.794V39.7915ZM136.4 58.2014C137.363 58.2014 138.512 57.9556 139.851 57.4679V62.8173C138.888 63.242 137.973 63.5461 137.103 63.7263C136.233 63.9089 135.212 63.9995 134.044 63.9995C131.647 63.9995 129.919 63.3948 128.858 62.1875C127.801 60.9805 127.271 59.1269 127.271 56.6256V47.8613H124.771V42.3649H127.271V36.9354L134.466 35.6795V42.3649H139.021V47.8613H134.466V56.1367C134.466 57.5132 135.111 58.2014 136.4 58.2014ZM152.924 58.2014C153.888 58.2014 155.036 57.9556 156.376 57.4679V62.8173C155.414 63.242 154.498 63.5461 153.628 63.7263C152.757 63.9089 151.74 63.9995 150.569 63.9995C148.172 63.9995 146.444 63.3948 145.385 62.1875C144.326 60.9805 143.796 59.1269 143.796 56.6256V47.8613H141.294V42.3649H143.796V36.853L150.99 35.6795V42.3649H155.547V47.8613H150.99V56.1367C150.99 57.5132 151.635 58.2014 152.924 58.2014ZM165.385 50.3576C165.482 49.1935 165.814 48.3406 166.379 47.7954C166.947 47.2515 167.649 46.9797 168.488 46.9797C169.403 46.9797 170.13 47.285 170.67 47.9004C171.213 48.5123 171.496 49.3317 171.518 50.3576H165.385ZM175.453 44.4939C173.756 42.824 171.348 41.9879 168.233 41.9879C164.959 41.9879 162.44 42.9481 160.674 44.8684C158.909 46.7888 158.026 49.544 158.026 53.1345C158.026 56.6113 158.98 59.2926 160.884 61.1748C162.789 63.057 165.464 63.9993 168.91 63.9993C170.564 63.9993 171.988 63.8861 173.181 63.6604C174.367 63.4375 175.515 63.0343 176.629 62.4523L175.532 57.6608C174.722 57.9925 173.952 58.2478 173.225 58.4158C172.174 58.6604 171.021 58.7833 169.766 58.7833C168.39 58.7833 167.304 58.4458 166.508 57.7706C165.712 57.0943 165.287 56.1616 165.239 54.9737H178V51.709C178 48.5685 177.151 46.1626 175.453 44.4939ZM66.0158 50.3576C66.1133 49.1935 66.4448 48.3406 67.0105 47.7954C67.5773 47.2515 68.2797 46.9797 69.1199 46.9797C70.0327 46.9797 70.7599 47.285 71.3008 47.9004C71.8438 48.5123 72.1255 49.3317 72.1505 50.3576H66.0158ZM76.0852 44.4939C74.3871 42.824 71.9805 41.9879 68.8645 41.9879C65.589 41.9879 63.0708 42.9481 61.306 44.8684C59.5412 46.7888 58.6569 49.544 58.6569 53.1345C58.6569 56.6113 59.6102 59.2926 61.5163 61.1748C63.4203 63.057 66.0954 63.9993 69.5406 63.9993C71.195 63.9993 72.6186 63.8861 73.8119 63.6604C74.9979 63.4375 76.1459 63.0343 77.2607 62.4523L76.1627 57.6608C75.3532 57.9925 74.583 58.2478 73.857 58.4158C72.8041 58.6604 71.6524 58.7833 70.3975 58.7833C69.0225 58.7833 67.935 58.4458 67.1389 57.7706C66.3414 57.0943 65.9184 56.1616 65.8696 54.9737H78.631V51.709C78.631 48.5685 77.7824 46.1626 76.0853 44.4939" fill="#0F0B0B"/>
</svg>
