<svg width="75" height="62" viewBox="0 0 75 62" fill="none" xmlns="http://www.w3.org/2000/svg">
<path d="M0.975998 51.8166V49.421H2.69139V51.8166H4.08145V53.2067H2.69139V57.2881C2.69139 57.6726 2.86884 57.7909 3.31248 57.7909C3.57866 57.7909 3.84484 57.7022 4.08145 57.643V59.0627C3.60824 59.1218 3.19418 59.181 2.72096 59.181C1.44921 59.181 0.975998 58.5303 0.975998 57.5247V53.2363H0V51.8462L0.975998 51.8166ZM6.62496 55.6911C6.65453 57.1698 7.3052 57.7614 8.10374 57.7614C8.90229 57.7614 9.2572 57.4064 9.70083 56.9037L10.943 57.6726C10.2923 58.7078 9.31635 59.1514 7.95586 59.1514C6.0926 59.1514 4.93914 57.7022 4.93914 55.4249C4.93914 53.1475 6.0926 51.6983 8.04459 51.6983C9.90786 51.6983 10.9726 53.2658 10.9726 55.0108V55.7206H6.62496V55.6911ZM9.3755 54.5376C9.34592 53.532 8.81356 52.9701 8.01502 52.9701C7.1869 52.9701 6.68411 53.5616 6.65453 54.5376H9.3755ZM16.4737 54.1531C16.2075 53.532 15.9117 53.0588 15.054 53.0588C14.1076 53.0588 13.664 53.7982 13.664 55.4249C13.664 57.022 14.1076 57.7614 15.1132 57.7614C15.8526 57.7614 16.2666 57.2586 16.6215 56.6079L17.9229 57.3473C17.2426 58.619 16.3554 59.1514 15.054 59.1514C13.1316 59.1514 11.9486 57.7022 11.9486 55.4249C11.9486 53.1475 13.102 51.6983 15.054 51.6983C16.4145 51.6983 17.4792 52.4082 17.8637 53.6208L16.4737 54.1531ZM19.1946 59.0035V49.0069H20.91V52.5856C21.4424 52.142 22.1226 51.6688 22.9507 51.6688C24.3704 51.6688 25.0802 52.6152 25.0802 54.0644V59.0035H23.3648V54.3306C23.3648 53.3546 23.069 53.0588 22.4775 53.0588C21.7381 53.0588 21.1762 53.5025 20.8804 53.8278V59.0331H19.1946V59.0035ZM26.8252 59.0035V51.8166H28.3927V52.5856C29.0138 52.142 29.7532 51.6688 30.5813 51.6688C32.0009 51.6688 32.6812 52.6152 32.6812 54.0644V59.0035H30.9953V54.3306C30.9953 53.3546 30.6996 53.0588 30.1081 53.0588C29.3687 53.0588 28.8067 53.5025 28.511 53.8278V59.0331H26.8252V59.0035ZM36.9992 51.6688C38.9512 51.6688 40.1047 53.118 40.1047 55.3953C40.1047 57.6726 38.9512 59.1218 36.9992 59.1218C35.0472 59.1218 33.8938 57.6726 33.8938 55.3953C33.9233 53.118 35.0768 51.6688 36.9992 51.6688ZM36.9992 53.0588C36.0528 53.0588 35.6091 53.7982 35.6091 55.4249C35.6091 57.022 36.0528 57.7614 36.9992 57.7614C37.9456 57.7614 38.3893 57.022 38.3893 55.4249C38.4188 53.7982 37.9456 53.0588 36.9992 53.0588ZM41.4947 59.0035V49.0069H43.1805V59.0035H41.4947ZM47.676 51.6688C49.628 51.6688 50.7815 53.118 50.7815 55.3953C50.7815 57.6726 49.628 59.1218 47.676 59.1218C45.724 59.1218 44.5706 57.6726 44.5706 55.3953C44.6002 53.118 45.7536 51.6688 47.676 51.6688ZM47.676 53.0588C46.7296 53.0588 46.286 53.7982 46.286 55.4249C46.286 57.022 46.7296 57.7614 47.676 57.7614C48.6225 57.7614 49.0661 57.022 49.0661 55.4249C49.0957 53.7982 48.652 53.0588 47.676 53.0588ZM57.8205 52.8518C57.436 52.8518 56.9924 52.8518 56.7262 53.0292C56.9628 53.325 57.1107 53.7391 57.1107 54.301C57.1107 55.6615 56.1938 56.6375 54.4193 56.6375C53.6799 56.6375 53.0884 56.6671 53.0884 57.0811C53.0884 58.2346 57.7909 56.6671 57.7909 59.5359C57.7909 60.571 56.7558 61.6653 54.4784 61.6653C52.556 61.6653 51.2843 61.0738 51.2843 59.95C51.2843 59.0627 51.9645 58.619 52.556 58.619V58.5599C52.2307 58.3529 51.4913 58.1754 51.4913 57.4064C51.4913 56.7262 52.2898 56.1938 52.6152 56.1051C52.0237 55.6319 51.5505 55.07 51.5505 54.2123C51.5505 52.9405 52.4969 51.6983 54.3601 51.6983C54.9517 51.6983 55.6911 51.9645 56.1051 52.349C56.4304 51.9054 56.9628 51.6688 57.7909 51.6983V52.8518H57.8205ZM52.8518 59.7133C52.8518 60.2457 53.325 60.5119 54.7446 60.5119C55.8389 60.5119 56.2234 59.95 56.2234 59.7133C56.2234 59.388 55.7206 58.8852 54.0644 58.8852C53.118 58.8852 52.8518 59.388 52.8518 59.7133ZM54.3601 52.9405C53.6208 52.9405 53.118 53.4729 53.118 54.1235C53.118 54.7742 53.6208 55.3066 54.3601 55.3066C55.0108 55.3066 55.5136 54.7742 55.5136 54.1235C55.5432 53.4729 55.0108 52.9405 54.3601 52.9405ZM59.0331 50.4857V48.8886H60.7189V50.4857H59.0331ZM60.7485 56.9037V59.0331H59.0627V51.8462H60.7485V56.9037ZM63.8244 55.6911C63.854 57.1698 64.5046 57.7614 65.3032 57.7614C66.1017 57.7614 66.4566 57.4064 66.9002 56.9037L68.1424 57.6726C67.4918 58.7078 66.5158 59.1514 65.1553 59.1514C63.292 59.1514 62.1386 57.7022 62.1386 55.4249C62.1386 53.1475 63.292 51.6983 65.244 51.6983C67.1073 51.6983 68.172 53.2658 68.172 55.0108V55.7206H63.8244V55.6911ZM66.5749 54.5376C66.5453 53.532 66.013 52.9701 65.1849 52.9701C64.3567 52.9701 63.8244 53.5616 63.8244 54.5376H66.5749ZM73.0224 53.7095C72.6675 53.325 72.2239 52.9405 71.6915 52.9405C71.0408 52.9405 70.7451 53.2067 70.7451 53.6503C70.7451 54.8925 74.3237 54.3601 74.3237 56.9924C74.3237 58.4712 73.1999 59.1514 71.6915 59.1514C70.5676 59.1514 69.6212 58.6486 69.0001 57.7022L70.1536 56.8445C70.5381 57.4064 71.0704 57.8797 71.8098 57.8797C72.4013 57.8797 72.8154 57.5543 72.8154 57.0515C72.8154 55.8389 69.2367 56.2826 69.2367 53.7686C69.2367 52.4377 70.3606 51.6688 71.6028 51.6688C72.5492 51.6688 73.4956 52.0237 74.1167 52.7631L73.0224 53.7095ZM51.58 31.439C50.2195 33.5389 48.0309 34.8402 45.6057 34.8402C42.2933 34.8402 39.5427 33.3318 39.5427 29.7532C39.5427 24.4591 47.262 22.5958 53.1771 22.2409V23.8084C53.2067 27.2392 53.1475 29.0729 51.58 31.439ZM40.5779 12.4218C41.4651 10.0262 43.8608 8.99101 47.1141 8.99101C51.7575 8.99101 53.0884 12.2443 53.1475 14.9357L53.1771 16.2371C40.3413 16.8582 28.2744 19.2538 28.511 30.9953C28.6884 39.2174 36.1119 42.589 41.2285 42.5594C47.1732 42.5594 50.4857 40.9624 53.7686 36.9105C53.8278 38.6259 54.0348 40.43 54.3306 41.7609H65.8355C65.1849 39.7497 65.037 37.7386 65.037 35.6387V14.3146C65.037 9.13889 64.061 6.24047 61.2809 3.72654C58.6486 1.33091 54.3306 0 48.5042 0C43.1805 0 38.5963 1.2126 35.2247 3.51951C38.0048 5.70811 39.8385 8.75441 40.5779 12.4218Z" fill="#58676D"/>
<path d="M27.8606 30.5517V31.6164C28.0381 35.8162 30.0788 38.4188 31.9716 39.9864C28.7774 41.82 24.9918 42.589 21.5906 42.589C9.16876 42.589 1.83398 33.805 1.83398 21.7086C1.83398 9.10932 9.40536 0 22.3299 0C31.7054 0 39.3951 4.96872 40.2232 14.6991H28.9549C28.9549 11.0022 26.3522 9.02059 22.7144 9.02059C16.888 9.02059 15.0839 13.1316 15.0839 20.703C15.0839 28.3927 16.7697 32.8882 22.744 32.8882C24.9622 32.9178 26.7959 32.1488 27.8606 30.5517Z" fill="#58676D"/>
</svg>
