<svg width="210" height="100" viewBox="0 0 210 100" fill="none" xmlns="http://www.w3.org/2000/svg">
<path d="M51.8178 28L25.6788 48.2154H20.5237L17 51.8562H25.6788L51.7805 71.8388H60.3102L42.878 51.8562H60.3102V48.1968H42.878L60.3568 28H51.8178ZM77.5932 43.4479V55.7019H90.6534V52.7036H81.1729V50.7202H90.6534V48.1968H81.1729V46.4276H90.6534V43.4479H77.5932ZM92.4246 43.4479V55.7019H96.0415V46.4276H96.5076L101.029 55.7019H104.347L108.841 46.4276H109.325V55.7019H112.886V43.4479H106.342L103.182 49.9846L102.642 51.2603L102.129 49.9846L99.0339 43.4479H92.4246ZM114.639 43.4479V55.7019L126.077 55.6833C126.93 55.6833 127.652 55.6331 128.128 55.4039C129.325 54.8469 129.582 53.8011 129.582 52.2939C129.549 51.6716 129.417 49.6727 128.072 49.6401C127.482 49.607 127.728 49.2323 128.072 49.249C128.679 49.0031 129.321 48.941 129.321 46.4183C129.255 43.2077 126.005 43.4479 125.611 43.4479H114.639ZM130.775 43.4479V55.7019H134.392V52.7036H141.225C142.012 52.7036 141.813 54.0145 141.813 55.7019H145.439H149.214L150.296 53.5695H158.508L159.646 55.7019H163.542H176.351V52.7036H166.88V50.7202H176.351V48.1968H166.88V46.4276H176.351V43.4479H163.319V55.2736L157.166 43.4479H151.657L145.439 55.4505V53.3274C145.422 52.7051 145.437 51.1789 144.125 51.1299C143.534 51.1299 143.78 50.7249 144.125 50.7575C145.059 50.7575 145.653 49.5554 145.653 47.0328C145.588 43.8219 144.128 43.4479 142.717 43.4479H130.775ZM178.122 43.4479V55.7019H181.748V52.7036H188.572C189.36 52.7036 189.159 54.0145 189.159 55.7019H192.786V53.3274C192.769 52.7051 192.783 51.1789 191.471 51.1299C190.881 51.1299 191.126 50.7249 191.471 50.7575C192.406 50.7575 193 49.5554 193 47.0328C192.934 43.8219 191.475 43.4479 190.064 43.4479H178.122ZM118.284 46.4276H125.005C125.005 46.4276 125.611 46.4324 125.611 47.2842C125.611 48.2017 125.005 48.1968 125.005 48.1968H118.284V46.4276ZM134.392 46.4276H140.666C141.191 46.4276 142.016 46.4335 141.999 47.9733C142.016 49.5298 141.043 49.479 140.731 49.5283H134.392V46.4276ZM153.969 46.4276H154.836L157.082 50.7202H151.769L153.969 46.4276ZM181.748 46.4276H188.013C188.537 46.4276 189.363 46.4335 189.346 47.9733C189.363 49.5298 188.407 49.479 188.078 49.5283H181.748V46.4276ZM118.284 50.7202H125.201C125.709 50.7202 126.042 50.7199 126.124 51.7352C126.042 52.7017 125.611 52.7036 125.005 52.7036H118.284V50.7202Z" fill="#014698"/>
</svg>
