<svg width="210" height="100" viewBox="0 0 210 100" fill="none" xmlns="http://www.w3.org/2000/svg">
<path d="M91.6506 12L83.624 46.3553C84.6251 45.121 85.7389 43.9987 86.9531 42.9947L91.6506 12ZM95.3938 14.6895L89.0712 41.4324C89.8962 40.8919 90.7532 40.4003 91.6401 39.9644L95.3938 14.6895ZM98.9169 16.6922L93.5641 39.1256C94.2807 38.8487 95.0114 38.6096 95.7556 38.4021L98.9169 16.6922ZM102.561 18.3122L97.8422 37.9198C98.4807 37.8037 99.1249 37.7162 99.7767 37.6524L102.561 18.3122ZM129.817 19.2297L122.729 49.5271C123.47 50.8251 124.093 52.1937 124.58 53.6164L129.817 19.2297ZM106.225 19.5495L101.869 37.5371C102.461 37.5323 103.063 37.5495 103.662 37.5895L106.225 19.5495ZM125.707 20.2834L119.767 45.4221C120.43 46.1615 121.042 46.9362 121.607 47.7498L125.707 20.2834ZM110.005 20.425L105.79 37.8307C106.07 37.8744 106.349 37.9232 106.629 37.9775C106.917 38.0336 107.199 38.0953 107.483 38.161L110.005 20.425ZM121.665 20.8916L116.517 42.418C117.134 42.89 117.73 43.3902 118.294 43.9174L121.665 20.8916ZM113.806 20.9388L109.497 38.7219C110.07 38.9094 110.63 39.1193 111.18 39.3458L113.806 20.9388ZM117.728 21.1013L113.119 40.2528C113.701 40.5573 114.269 40.8839 114.818 41.2332L117.728 21.1013Z" fill="#FDBD10"/>
<path d="M54.7283 64.942C53.8433 64.942 52.9754 64.8344 52.2693 64.6527L52.3797 62.7904C53.0658 63.0426 54.0241 63.2424 54.9081 63.2424C56.247 63.2424 57.3309 62.6838 57.3309 61.362C57.3309 58.7956 52 59.8823 52 55.9408C52 53.8434 53.6444 52.3789 56.483 52.3789C57.2062 52.3789 57.9447 52.4722 58.6869 52.5968L58.5784 54.3516C57.8733 54.1327 57.0958 54.0071 56.3726 54.0071C54.8548 54.0071 54.0773 54.7103 54.0773 55.7238C54.0773 58.1646 59.4101 57.2616 59.4101 61.0728C59.4101 63.3128 57.6383 64.942 54.7283 64.942Z" fill="black"/>
<path d="M71.1462 59.9706C71.1462 56.7884 69.2506 55.1992 66.5205 55.1992C63.9169 55.1992 61.6416 57.0606 61.6416 60.1523C61.6416 62.97 63.1585 64.9236 66.2141 64.9236C68.9061 64.9236 71.1462 63.0794 71.1462 59.9706ZM69.0517 60.0971C69.0517 62.1925 67.8223 63.206 66.3216 63.206C64.4793 63.206 63.719 61.7938 63.719 60.0086C63.719 57.9817 64.9665 56.8959 66.3949 56.8959C68.0031 56.8959 69.0517 57.9988 69.0517 60.0971Z" fill="black"/>
<path d="M73.877 64.7604V55.3633H75.8287V63.0618H79.0622V64.7604H73.877Z" fill="black"/>
<path d="M90.856 64.7604L87.3141 55.3633H85.0189L81.457 64.7604H83.4097L84.0977 62.9342H88.0183L88.6873 64.7604H90.856ZM87.5321 61.5259H84.5659L85.5794 58.868C85.7592 58.3799 85.9419 57.8565 86.0485 57.4035H86.0675C86.1932 57.8384 86.3749 58.3979 86.5548 58.888L87.5321 61.5259Z" fill="black"/>
<path d="M100.77 64.7618L98.4383 61.6158C98.149 61.2209 97.8959 60.8574 97.6799 60.6052C99.1777 60.3692 100.245 59.449 100.245 57.9103C100.245 56.1774 98.9436 55.3086 96.7035 55.3086C95.5454 55.3086 94.3179 55.3276 93.6289 55.3647V64.7618H95.5816V60.8926H95.6739L98.365 64.7618H100.77ZM98.1842 58.1111C98.1842 58.997 97.5172 59.5937 96.4866 59.5937C96.1783 59.5937 95.8537 59.5737 95.5816 59.5556V56.8464C95.8357 56.8093 96.0897 56.8093 96.4133 56.8093C97.5172 56.8093 98.1842 57.2622 98.1842 58.1111Z" fill="black"/>
<path d="M115.71 64.762H113.289L111.209 57.2234C110.992 56.485 110.866 55.7075 110.737 54.9301H110.722C110.631 55.6885 110.485 56.4308 110.286 57.1882L108.226 64.762H105.912L102.749 52.5625H104.848L106.725 59.9726C106.944 60.7843 107.087 61.5628 107.196 62.3764H107.215C107.34 61.5808 107.485 60.8024 107.701 60.0621L109.78 52.5625H111.933L114.065 60.0821C114.245 60.732 114.426 61.5447 114.553 62.3231H114.57C114.697 61.5628 114.824 60.8576 115.005 60.1886L116.902 52.5625H118.873L115.71 64.762Z" fill="black"/>
<path d="M129.722 59.9706C129.722 56.7884 127.824 55.1992 125.093 55.1992C122.487 55.1992 120.212 57.0606 120.212 60.1523C120.212 62.97 121.732 64.9236 124.786 64.9236C127.482 64.9236 129.722 63.0794 129.722 59.9706ZM127.624 60.0971C127.624 62.1925 126.394 63.206 124.896 63.206C123.051 63.206 122.289 61.7938 122.289 60.0086C122.289 57.9817 123.54 56.8959 124.967 56.8959C126.576 56.8959 127.624 57.9988 127.624 60.0971Z" fill="black"/>
<path d="M139.916 64.7618L137.584 61.6158C137.296 61.2209 137.041 60.8574 136.824 60.6052C138.324 60.3692 139.391 59.449 139.391 57.9103C139.391 56.1774 138.088 55.3086 135.847 55.3086C134.691 55.3086 133.462 55.3276 132.775 55.3647V64.7618H134.728V60.8926H134.819L137.511 64.7618H139.916ZM137.332 58.1111C137.332 58.997 136.662 59.5937 135.632 59.5937C135.326 59.5937 134.998 59.5737 134.728 59.5556V56.8464C134.98 56.8093 135.233 56.8093 135.56 56.8093C136.662 56.8093 137.332 57.2622 137.332 58.1111Z" fill="black"/>
<path d="M142.541 64.7604V55.3633H144.496V63.0618H147.729V64.7604H142.541Z" fill="black"/>
<path d="M159 59.9148C159 56.6431 157.013 55.3242 153.921 55.3242C152.819 55.3242 151.336 55.3613 150.506 55.3613V64.7584C151.319 64.7755 152.241 64.8117 153.435 64.8117C156.595 64.8117 159 63.2929 159 59.9148ZM156.922 60.0242C156.922 62.1567 155.566 63.1845 153.632 63.1845C153.214 63.1845 152.727 63.1512 152.458 63.1321V56.9324C152.836 56.9153 153.324 56.8944 153.705 56.8944C155.837 56.8944 156.922 57.9449 156.922 60.0242Z" fill="black"/>
<path d="M53.5967 66.9425V69.7649H52.9467V66.9425H52.0703V66.3867H54.4731V66.9425H53.5967Z" fill="black"/>
<path d="M58.7325 69.7649V68.2985H57.3013V69.7649H56.6504V66.3867H57.3013V67.738H58.7325V66.3867H59.3834V69.7649H58.7325Z" fill="black"/>
<path d="M61.9844 69.7649V66.3867H63.8219V66.932H62.6353V67.7627H63.761V68.2947H62.6353V69.2101H63.8219V69.7649H61.9844Z" fill="black"/>
<path d="M69.7736 69.8216C69.5338 69.8216 69.294 69.7968 69.0837 69.7407L69.1227 69.1355C69.314 69.2011 69.5833 69.2554 69.8288 69.2554C70.16 69.2554 70.414 69.1202 70.414 68.811C70.414 68.1648 68.998 68.4608 68.998 67.3502C68.998 66.7488 69.4738 66.332 70.2846 66.332C70.4749 66.332 70.6957 66.3587 70.8955 66.3929L70.8594 66.9639C70.6691 66.9078 70.4597 66.8735 70.2542 66.8735C69.8792 66.8735 69.6889 67.0429 69.6889 67.2836C69.6889 67.8898 71.1106 67.6652 71.1106 68.7206C71.1106 69.3562 70.6044 69.8216 69.7736 69.8216Z" fill="black"/>
<path d="M74.7743 69.8201C73.7085 69.8201 73.4678 69.2396 73.4678 68.5935V66.3867H74.1187V68.5545C74.1187 68.9789 74.2585 69.2805 74.82 69.2805C75.3196 69.2805 75.5308 69.0683 75.5308 68.4936V66.3867H76.176V68.4536C76.176 69.3795 75.665 69.8201 74.7743 69.8201Z" fill="black"/>
<path d="M80.7045 69.7649L79.713 68.0587C79.5626 67.8027 79.4474 67.5515 79.3475 67.3317C79.3675 67.6228 79.377 68.1529 79.377 68.5592V69.7649H78.7471V66.3867H79.594L80.5342 67.9978C80.6893 68.2595 80.8244 68.5383 80.9491 68.7943C80.9243 68.4536 80.9148 67.8531 80.9148 67.4373V66.3867H81.5448V69.7649H80.7045Z" fill="black"/>
<path d="M86.3351 67.413C86.3351 66.7535 85.8802 66.3672 85.0485 66.3672C84.7183 66.3672 84.4176 66.372 84.1426 66.3872V69.7654H84.7935V68.574C84.8734 68.5844 84.9543 68.5844 85.0142 68.5844C85.8345 68.5844 86.3351 68.0696 86.3351 67.413ZM85.6604 67.453C85.6604 67.8174 85.3844 68.0382 84.9838 68.0449C84.9229 68.0449 84.8582 68.0382 84.7935 68.0277V66.902C84.8686 66.8982 84.9438 66.8982 85.0247 66.8982C85.4634 66.8982 85.6604 67.1133 85.6604 67.453Z" fill="black"/>
<path d="M91.5843 68.0287C91.5843 66.8735 90.9487 66.332 90.0475 66.332C89.1416 66.332 88.3965 67.0029 88.3965 68.1191C88.3965 69.1669 88.9008 69.8216 89.9324 69.8216C90.8488 69.8216 91.5843 69.1459 91.5843 68.0287ZM90.8887 68.0801C90.8887 68.8909 90.4177 69.2306 89.9781 69.2306C89.3719 69.2306 89.0912 68.7662 89.0912 68.0506C89.0912 67.2884 89.5222 66.9182 89.9885 66.9182C90.568 66.9182 90.8887 67.3293 90.8887 68.0801Z" fill="black"/>
<path d="M97.2449 69.7649H96.4446L95.9545 67.9026C95.8945 67.6885 95.8584 67.4478 95.8232 67.2061H95.8184C95.7946 67.442 95.7537 67.6638 95.6938 67.8883L95.2027 69.7649H94.4481L93.5869 66.3867H94.2816L94.7431 68.2528C94.7983 68.4745 94.8373 68.7039 94.8678 68.9389H94.8725C94.9087 68.7134 94.943 68.4888 95.002 68.2737L95.5187 66.3867H96.2086L96.7301 68.2633C96.7795 68.4498 96.8347 68.6839 96.8652 68.9189H96.869C96.9042 68.6839 96.9451 68.4745 96.9946 68.2737L97.4552 66.3867H98.107L97.2449 69.7649Z" fill="black"/>
<path d="M100.358 69.7649V66.3867H102.195V66.932H101.008V67.7627H102.135V68.2947H101.008V69.2101H102.195V69.7649H100.358Z" fill="black"/>
<path d="M107.05 69.7654L106.239 68.6282C106.153 68.514 106.058 68.3846 105.963 68.2599C106.475 68.179 106.824 67.8174 106.824 67.3178C106.824 66.6279 106.344 66.3672 105.599 66.3672C105.207 66.3672 104.892 66.3719 104.626 66.3872V69.7654H105.278V68.3694H105.303L106.244 69.7654H107.05ZM106.144 67.3825C106.144 67.6985 105.904 67.8983 105.514 67.8983C105.413 67.8983 105.323 67.8936 105.278 67.8888V66.9125C105.343 66.902 105.438 66.8982 105.533 66.8982C105.943 66.8982 106.144 67.0581 106.144 67.3825Z" fill="black"/>
<path d="M109.302 69.7649V66.3867H111.139V66.932H109.953V67.7627H111.079V68.2947H109.953V69.2101H111.139V69.7649H109.302Z" fill="black"/>
<path d="M116.375 68.0182C116.375 66.8325 115.71 66.3672 114.663 66.3672C114.247 66.3672 113.838 66.3815 113.571 66.3919V69.7606C113.857 69.7701 114.162 69.7853 114.513 69.7853C115.614 69.7853 116.375 69.1801 116.375 68.0182ZM115.673 68.0696C115.673 68.8699 115.214 69.2296 114.578 69.2296C114.448 69.2296 114.312 69.2201 114.222 69.2049V66.9267C114.328 66.9172 114.469 66.9125 114.618 66.9125C115.388 66.9125 115.673 67.3416 115.673 68.0696Z" fill="black"/>
<path d="M123.008 69.8089C121.826 69.8089 121.445 69.022 121.445 68.1817C121.445 67.1111 122.006 66.3594 123.137 66.3594C123.378 66.3594 123.633 66.3898 123.854 66.4498L123.783 67.0398C123.563 66.976 123.331 66.9408 123.102 66.9408C122.471 66.9408 122.162 67.4147 122.162 68.0723C122.162 68.8078 122.466 69.218 123.148 69.218C123.352 69.218 123.628 69.158 123.803 69.0781L123.879 69.6586C123.628 69.749 123.324 69.8089 123.008 69.8089Z" fill="black"/>
<path d="M129.114 68.0287C129.114 66.8735 128.478 66.332 127.576 66.332C126.671 66.332 125.926 67.0029 125.926 68.1191C125.926 69.1669 126.431 69.8216 127.462 69.8216C128.378 69.8216 129.114 69.1459 129.114 68.0287ZM128.418 68.0801C128.418 68.8909 127.948 69.2306 127.506 69.2306C126.901 69.2306 126.621 68.7662 126.621 68.0506C126.621 67.2884 127.052 66.9182 127.517 66.9182C128.097 66.9182 128.418 67.3293 128.418 68.0801Z" fill="black"/>
<path d="M134.604 69.7649L134.363 68.1529C134.313 67.8332 134.283 67.5819 134.258 67.3488H134.248C134.204 67.5629 134.149 67.8027 134.062 68.0692L133.527 69.7649H132.882L132.367 68.1986C132.275 67.9226 132.192 67.6171 132.152 67.3488H132.141C132.121 67.6466 132.086 67.9121 132.047 68.2081L131.856 69.7649H131.194L131.715 66.3867H132.477L133.042 68.1224C133.122 68.3642 133.182 68.5935 133.227 68.8342H133.236C133.288 68.5735 133.342 68.3841 133.428 68.1329L134.007 66.3867H134.764L135.289 69.7649H134.604Z" fill="black"/>
<path d="M139.789 67.413C139.789 66.7535 139.333 66.3672 138.503 66.3672C138.173 66.3672 137.872 66.372 137.597 66.3872V69.7654H138.248V68.574C138.328 68.5844 138.407 68.5844 138.468 68.5844C139.289 68.5844 139.789 68.0696 139.789 67.413ZM139.114 67.453C139.114 67.8174 138.839 68.0382 138.438 68.0449C138.378 68.0449 138.313 68.0382 138.248 68.0277V66.902C138.324 66.8982 138.398 66.8982 138.478 66.8982C138.917 66.8982 139.114 67.1133 139.114 67.453Z" fill="black"/>
<path d="M144.503 69.7649L143.296 66.3867H142.562L141.38 69.7649H142.036L142.271 69.074H143.547L143.783 69.7649H144.503ZM143.376 68.5592H142.436L142.742 67.698C142.805 67.502 142.862 67.3079 142.902 67.1328H142.906C142.946 67.3221 142.997 67.4877 143.061 67.6733L143.376 68.5592Z" fill="black"/>
<path d="M148.617 69.7649L147.627 68.0587C147.476 67.8027 147.361 67.5515 147.262 67.3317C147.282 67.6228 147.291 68.1529 147.291 68.5592V69.7649H146.66V66.3867H147.506L148.447 67.9978C148.603 68.2595 148.738 68.5383 148.863 68.7943C148.838 68.4536 148.827 67.8531 148.827 67.4373V66.3867H149.458V69.7649H148.617Z" fill="black"/>
<path d="M153.303 68.5687V69.7649H152.652V68.5735L151.596 66.3867H152.307L152.751 67.3564C152.841 67.5581 152.917 67.7418 152.981 67.9178H152.992C153.062 67.7228 153.163 67.5068 153.263 67.2917L153.687 66.3867H154.378L153.303 68.5687Z" fill="black"/>
<path d="M157.602 65.9492C156.956 65.9492 156.432 66.4555 156.432 67.1007C156.432 67.7516 156.946 68.2578 157.602 68.2578C158.242 68.2578 158.773 67.7401 158.773 67.1007C158.773 66.4498 158.252 65.9492 157.602 65.9492ZM157.602 66.3099C158.031 66.3099 158.382 66.6753 158.382 67.1054C158.382 67.5403 158.031 67.8914 157.602 67.8914C157.166 67.8914 156.816 67.5308 156.816 67.0949C156.816 66.6648 157.166 66.3099 157.602 66.3099ZM158.078 67.6564L157.912 67.3005C157.882 67.2396 157.852 67.1901 157.827 67.1654C157.962 67.1254 158.053 67.0245 158.053 66.8513C158.053 66.6648 157.931 66.5392 157.656 66.5392H157.192V67.6564H157.493V67.2301H157.527L157.718 67.6564H158.078ZM157.722 66.8856C157.722 66.9608 157.667 67.0245 157.547 67.0245H157.493V66.7705H157.572C157.676 66.7705 157.722 66.8047 157.722 66.8856Z" fill="black"/>
<path d="M102.314 84.6527C94.4694 84.6527 87.4932 80.9899 83.0273 75.3032C86.8223 82.2775 94.2724 87.0202 102.844 87.0202C113.34 87.0202 122.156 79.9089 124.635 70.293C120.839 78.7508 112.278 84.6527 102.314 84.6527Z" fill="#005CAB"/>
</svg>
