<svg width="1659" height="1261" viewBox="0 0 1659 1261" fill="none" xmlns="http://www.w3.org/2000/svg">
<path d="M22.6255 1044.15C15.5297 1065.44 20.0068 1096.73 26.1675 1117.76C38.2103 1158.87 60.2949 1198.72 92.0269 1227.9C152.723 1283.7 177.244 1157.48 180.688 1118.98C182.387 1099.99 182.686 1080.62 180.688 1061.64C179.962 1054.75 180.483 1032.88 174.932 1027.33C170.862 1023.26 170.229 1069.22 170.505 1071.6C175.12 1111.5 188.876 1162.92 216.551 1193.58C233.365 1212.22 248.725 1172.03 252.746 1160.82C269.271 1114.76 271.578 1062.98 269.238 1014.49C269.016 1009.89 263.043 953.39 257.727 953.39C257.088 953.39 258.88 980.203 258.944 980.73C262.432 1009.41 267.141 1046.63 288.83 1067.84C333.493 1111.51 398.145 1067.09 420.66 1021.35C433.913 994.432 435.049 959.629 435.049 930.146C435.049 924.201 437.33 891.05 426.194 890.741C387.534 889.667 380.549 916.656 381.365 950.955C382.265 988.715 390.925 1024.8 408.263 1058.54C420.437 1082.24 450.423 1103.41 476.889 1086.22C502.26 1069.74 520.606 1038.99 530.573 1011.17C548.89 960.034 543.445 897.995 544.63 844.362C546.168 774.772 549.667 703.864 540.535 634.609C537.029 608.024 532.021 581.183 519.726 557.127C514.717 547.328 512.604 542.432 501.905 546.501C477.728 555.695 474.519 567.286 473.347 592.547C468.687 693.002 482.544 801.235 532.455 889.966C549.159 919.662 607.116 989.195 645.799 950.512C664.306 932.005 662.181 896.196 662.181 872.366C662.181 865.029 666.003 842.76 660.189 836.946" stroke="white" stroke-width="38" stroke-linecap="round"/>
<path d="M771.762 787.137C770.474 775.546 758.666 760.98 750.953 753.266C744.229 746.542 732.639 736.218 722.838 734.671C711.515 732.883 706.104 757.036 704.132 763.56C693.29 799.42 697.538 843.193 719.85 874.359C740.503 903.209 778.414 893.154 806.297 881.443C833.799 869.892 853.495 852.045 864.519 824.107C874.585 798.596 877.733 769.677 880.901 742.64C883.435 721.01 886.872 698.43 884 676.67C883.03 669.318 879.737 649.231 871.381 645.235C864.408 641.9 848.808 661.063 845.702 665.048C821.901 695.575 827.417 748.119 841.828 781.602C855.336 812.989 882.727 817.796 913.664 817.022C985.971 815.215 1016.39 724.932 969.008 673.903C959.229 663.371 936.171 659.205 922.298 661.727C917.833 662.539 912.738 676.964 917.649 669.143C924.296 658.558 931.669 648.848 937.13 637.486C945.018 621.076 949.807 602.209 961.482 587.898C969.529 578.033 984.213 562.448 997.012 574.394C1022.64 598.312 1033.8 628.08 1044.72 660.51C1049.1 673.519 1055.57 714.675 1076.6 708.991C1084.57 706.836 1087.76 695.907 1090.99 689.51C1098.78 674.047 1101.41 661.703 1102.06 644.128C1103.26 611.088 1097.84 579 1094.31 546.28C1093.98 543.257 1090.34 493.866 1096.63 492.817C1098.39 492.524 1110.27 540.485 1111.24 544.066C1116.15 562.068 1122.89 579.608 1130.5 596.643C1139.52 616.804 1152.46 637.718 1170.9 650.548C1175.75 653.917 1192.06 663.703 1198.13 657.632C1202.16 653.606 1203.93 646.187 1206.54 641.25C1214.33 626.552 1220.62 611.218 1223.59 594.761C1229.95 559.54 1220.05 525.254 1220.05 490.271C1220.05 489.529 1220.66 484.516 1219.16 484.516C1217.11 484.516 1220.55 488.388 1221.38 490.271C1224.82 498.147 1227.9 506.166 1231.01 514.18C1242.55 543.978 1259.04 591.497 1291.77 604.501C1311.01 612.145 1336.67 601.38 1348.67 586.349C1374.31 554.228 1384.96 504.789 1386.52 464.813C1387.24 446.383 1387.96 424.013 1382.1 406.038C1373.9 380.904 1361.36 368.996 1337.16 385.893C1317.54 399.585 1319.67 430.749 1319.67 451.973C1319.67 481.587 1326.59 515.627 1341.58 541.409C1347.94 552.347 1355.5 571.179 1368.81 575.501C1383.67 580.326 1401.36 576.989 1415.86 572.623C1452.06 561.718 1476.03 522.597 1484.93 488.39C1491.88 461.642 1496.99 434.323 1496.99 406.591" stroke="white" stroke-width="38" stroke-linecap="round"/>
<path d="M1532.85 38C1532.85 50.7078 1535.82 62.7832 1538.94 75.0805C1548.58 113.019 1556.14 151.581 1564.29 189.864C1573.86 234.806 1577.95 287.58 1598.6 328.888" stroke="white" stroke-width="75" stroke-linecap="round"/>
<path d="M1614.54 434.484C1613.68 443.922 1611.35 452.233 1615.76 461.382C1619.09 468.295 1628.95 476.181 1634.91 467.47C1641.96 457.159 1641.25 434.484 1626.5 434.484" stroke="white" stroke-width="38" stroke-linecap="round"/>
</svg>
